<svg width="230" height="230" viewBox="0 0 230 230" fill="none" xmlns="http://www.w3.org/2000/svg">
<path d="M100.5 9.52637C109.332 4.42694 120.183 4.34699 129.078 9.28711L129.5 9.52637L199.093 49.7061C208.065 54.8864 213.593 64.4597 213.593 74.8203V155.18C213.593 165.54 208.065 175.114 199.093 180.294L129.5 220.474C120.668 225.573 109.817 225.653 100.922 220.713L100.5 220.474L30.9072 180.294C21.9347 175.114 16.4073 165.54 16.4072 155.18V74.8203C16.4073 64.4597 21.9347 54.8864 30.9072 49.7061L100.5 9.52637Z" fill="white" stroke="#0077FF" stroke-width="2"/>
<path d="M105 25.7735C111.188 22.2008 118.812 22.2008 125 25.7735L187.272 61.7265C193.46 65.2992 197.272 71.9017 197.272 79.047V150.953C197.272 158.098 193.46 164.701 187.272 168.273L125 204.227C118.812 207.799 111.188 207.799 105 204.227L42.7276 168.273C36.5396 164.701 32.7276 158.098 32.7276 150.953V79.047C32.7276 71.9017 36.5396 65.2992 42.7276 61.7265L105 25.7735Z" fill="#0077FF" fill-opacity="0.15"/>
<path d="M146.231 83.7692V101.077M146.231 83.7692H128.923M146.231 83.7692L123.154 106.846M134.692 153C102.831 153 77 127.169 77 95.3077V86.6538C77 84.3587 77.9117 82.1576 79.5347 80.5347C81.1576 78.9117 83.3587 78 85.6538 78H90.9308C92.9154 78 94.6462 79.35 95.1269 81.2769L99.3808 98.2885C99.8038 99.9808 99.1731 101.758 97.7769 102.8L92.8038 106.531C92.092 107.046 91.5654 107.777 91.3021 108.616C91.0388 109.454 91.0529 110.355 91.3423 111.185C93.6572 117.481 97.3131 123.199 102.057 127.943C106.801 132.687 112.519 136.343 118.815 138.658C120.512 139.281 122.385 138.642 123.469 137.196L127.2 132.223C127.711 131.541 128.411 131.026 129.214 130.74C130.016 130.455 130.885 130.413 131.712 130.619L148.723 134.873C150.646 135.354 152 137.085 152 139.069V144.346C152 146.641 151.088 148.842 149.465 150.465C147.842 152.088 145.641 153 143.346 153H134.692Z" stroke="#0077FF" stroke-width="2" stroke-linecap="round" stroke-linejoin="round"/>
</svg>
