<svg width="65" height="81" viewBox="0 0 65 81" fill="none" xmlns="http://www.w3.org/2000/svg">
<path d="M63.5 32.25C63.5 62.0083 32.25 79.125 32.25 79.125C32.25 79.125 1 62.0083 1 32.25C1 23.962 4.2924 16.0134 10.1529 10.1529C16.0134 4.2924 23.962 1 32.25 1C40.538 1 48.4866 4.2924 54.3471 10.1529C60.2076 16.0134 63.5 23.962 63.5 32.25Z" stroke="#0077FF" stroke-width="2" stroke-linecap="round" stroke-linejoin="round"/>
<path d="M29 33L32 36L37 29M45 32C45 33.5759 44.6896 35.1363 44.0866 36.5922C43.4835 38.0481 42.5996 39.371 41.4853 40.4853C40.371 41.5996 39.0481 42.4835 37.5922 43.0866C36.1363 43.6896 34.5759 44 33 44C31.4241 44 29.8637 43.6896 28.4078 43.0866C26.9519 42.4835 25.629 41.5996 24.5147 40.4853C23.4004 39.371 22.5165 38.0481 21.9134 36.5922C21.3104 35.1363 21 33.5759 21 32C21 28.8174 22.2643 25.7652 24.5147 23.5147C26.7652 21.2643 29.8174 20 33 20C36.1826 20 39.2348 21.2643 41.4853 23.5147C43.7357 25.7652 45 28.8174 45 32Z" stroke="#0077FF" stroke-width="2" stroke-linecap="round" stroke-linejoin="round"/>
</svg>
