<svg width="81" height="114" viewBox="0 0 81 114" fill="none" xmlns="http://www.w3.org/2000/svg">
<path fill-rule="evenodd" clip-rule="evenodd" d="M0 0H42.8984C60.369 0 71.9451 10.6806 71.9451 26.7124C71.9451 34.4934 69.3465 40.8651 63.8191 46.3705C74.5437 53.2707 80.5997 63.9512 80.5997 75.8577C80.5997 97.5931 60.8975 113.97 34.5962 113.97H0L0 0ZM33.2015 99.142C51.0244 99.142 64.1714 88.9606 64.1714 75.1823C64.1714 67.0783 59.4955 59.3267 51.898 54.8195C46.1723 57.7484 39.4483 60.5232 31.3003 63.2759C22.1466 66.1974 15.5767 73.8023 15.5767 81.554V99.142H33.2015ZM15.5474 56.8969H16.0759C17.8009 53.5937 22.4769 50.8483 32.8491 47.567C48.0735 42.5681 55.4948 36.0129 55.4948 27.4098C55.4948 19.8049 49.7985 14.8353 41.1513 14.8353H15.5474V56.8969Z" fill="#0077FF"/>
</svg>
