<svg width="128" height="128" viewBox="0 0 128 128" fill="none" xmlns="http://www.w3.org/2000/svg">
<path d="M103 0H25C11.1929 0 0 11.1929 0 25V103C0 116.807 11.1929 128 25 128H103C116.807 128 128 116.807 128 103V25C128 11.1929 116.807 0 103 0Z" fill="#5C31FE"/>
<path d="M72.2602 87.4998H64.3694C60.1444 87.4998 56.7195 90.9247 56.7195 95.1496C56.7195 99.3746 60.1444 102.8 64.3694 102.8H72.2602C76.4851 102.8 79.9101 99.3746 79.9101 95.1496C79.9101 90.9247 76.4851 87.4998 72.2602 87.4998Z" fill="white"/>
<path d="M95.1497 56.8398H64.3695C60.1446 56.8398 56.7196 60.2648 56.7196 64.4897C56.7196 68.7146 60.1446 72.1396 64.3695 72.1396H95.1497C99.3746 72.1396 102.8 68.7146 102.8 64.4897C102.8 60.2648 99.3746 56.8398 95.1497 56.8398Z" fill="white"/>
<path d="M102.8 33.7101C102.8 37.9868 99.3666 41.4202 95.0899 41.4202H63.5266C51.2988 41.4202 41.4202 51.2988 41.4202 63.5266V95.0899C41.4202 99.3666 37.9868 102.8 33.7101 102.8C29.4334 102.8 26 99.3666 26 95.0899V61.1172C26 41.7214 41.7214 26 61.1172 26H95.0899C99.3666 26 102.8 29.4334 102.8 33.7101Z" fill="white"/>
</svg>
