<svg width="72" height="56" viewBox="0 0 72 56" fill="none" xmlns="http://www.w3.org/2000/svg">
<path d="M1 41.3846L19.5195 22.8651C20.2695 22.1151 21.1599 21.5202 22.1398 21.1142C23.1198 20.7083 24.1701 20.4994 25.2308 20.4994C26.2915 20.4994 27.3418 20.7083 28.3217 21.1142C29.3016 21.5202 30.192 22.1151 30.9421 22.8651L49.4615 41.3846M44.0769 36L49.1349 30.9421C49.8849 30.192 50.7753 29.5971 51.7552 29.1912C52.7352 28.7853 53.7855 28.5763 54.8462 28.5763C55.9068 28.5763 56.9571 28.7853 57.9371 29.1912C58.917 29.5971 59.8074 30.192 60.5574 30.9421L71 41.3846M6.38462 54.8462H65.6154C67.0435 54.8462 68.4131 54.2788 69.4229 53.269C70.4327 52.2592 71 50.8896 71 49.4615V6.38462C71 4.95653 70.4327 3.58693 69.4229 2.57712C68.4131 1.56731 67.0435 1 65.6154 1H6.38462C4.95653 1 3.58693 1.56731 2.57712 2.57712C1.56731 3.58693 1 4.95653 1 6.38462V49.4615C1 50.8896 1.56731 52.2592 2.57712 53.269C3.58693 54.2788 4.95653 54.8462 6.38462 54.8462ZM44.0769 14.4615H44.1056V14.4903H44.0769V14.4615ZM45.4231 14.4615C45.4231 14.8186 45.2813 15.161 45.0288 15.4134C44.7763 15.6659 44.4339 15.8077 44.0769 15.8077C43.7199 15.8077 43.3775 15.6659 43.125 15.4134C42.8726 15.161 42.7308 14.8186 42.7308 14.4615C42.7308 14.1045 42.8726 13.7621 43.125 13.5097C43.3775 13.2572 43.7199 13.1154 44.0769 13.1154C44.4339 13.1154 44.7763 13.2572 45.0288 13.5097C45.2813 13.7621 45.4231 14.1045 45.4231 14.4615Z" stroke="#0077FF" stroke-width="2" stroke-linecap="round" stroke-linejoin="round"/>
</svg>
