<svg width="72" height="100" viewBox="0 0 72 100" fill="none" xmlns="http://www.w3.org/2000/svg">
<path d="M12.2457 0C5.80982 0 0.617466 5.29301 0.617466 11.8096V73.7088C0.617466 76.5779 1.61362 79.2095 3.28992 81.2569C1.28959 82.5526 0.00346697 84.2269 0.00346697 86.1684C0.00346697 86.24 0 86.3147 0.00346697 86.3851C-0.00115566 86.4336 -0.00115566 86.481 0.00346697 86.5295V92.0549C0.00346697 94.4412 1.91064 96.4244 4.73449 97.7972C7.55821 99.1701 11.3949 100 15.6048 100C19.0799 100 22.2506 99.4527 24.85 98.4832C28.2123 99.4863 31.454 99.8136 34.1313 99.5307C37.2576 99.2004 39.7486 97.9838 40.5597 95.7385L42.4376 90.5381C42.4775 90.4595 42.5021 90.3732 42.5098 90.2854C42.5202 90.26 42.5365 90.2392 42.5459 90.2138C43.0854 88.7202 42.7489 87.104 41.8236 85.5189H45.6517C47.1417 91.1645 52.2905 95.342 58.3998 95.342C65.6723 95.342 71.5812 89.4328 71.5812 82.1606C71.5812 76.56 68.0631 71.7891 63.1304 69.8817V21.1281C63.1507 21.0066 63.1382 20.882 63.0944 20.7669C63.0886 20.7527 63.065 20.7445 63.0583 20.7308C63.0316 20.6655 62.9951 20.6046 62.95 20.5503L44.7485 0.217673C44.736 0.204498 44.7258 0.193648 44.7124 0.181629C44.689 0.168218 44.6649 0.156191 44.6402 0.145585C44.5422 0.0778641 44.4337 0.0125927 44.3152 0.00112857C44.2911 -0.000126122 44.267 -0.000126122 44.2429 0.00112857H44.1346L12.2457 0ZM12.2457 1.37234H43.557V9.8953C43.557 16.4117 48.7519 21.7049 55.1852 21.7049H61.758V69.4115C60.6833 69.1279 59.5623 68.9782 58.3994 68.9782C51.1269 68.9782 45.218 74.8873 45.218 82.1596C45.218 82.8225 45.2677 83.473 45.3625 84.1097H40.8482C40.5905 83.7932 40.3165 83.4777 40.0176 83.1708C37.8277 80.9214 34.5152 78.8589 30.5557 77.4288C27.0912 76.1774 23.7235 75.6306 20.841 75.7312C20.4292 75.7451 20.0395 75.7625 19.6493 75.8029C17.2021 76.0622 15.1205 76.8784 13.9433 78.2948C10.4007 78.4758 7.21608 79.2375 4.77025 80.4255C4.68069 80.4694 4.60521 80.5249 4.51745 80.57C2.95674 78.7462 2.02563 76.341 2.02563 73.7083V11.8091C2.02563 6.02513 6.56897 1.37234 12.2457 1.37234ZM44.9287 2.49188L48.0346 5.95885L60.8912 20.2959H55.1852C49.5066 20.2959 44.9287 15.679 44.9287 9.89501V2.49188ZM9.2479 15.3127C9.07934 15.3322 8.92376 15.4128 8.81061 15.5393C8.69747 15.6657 8.63462 15.8292 8.63396 15.9989V24.7385C8.63585 24.9199 8.70876 25.0934 8.83703 25.2216C8.9653 25.3499 9.13873 25.4228 9.32013 25.4247H21.852C22.0334 25.4228 22.2069 25.3499 22.3351 25.2216C22.4634 25.0934 22.5363 24.9199 22.5382 24.7385V15.9989C22.5363 15.8175 22.4634 15.6441 22.3351 15.5159C22.2069 15.3876 22.0334 15.3146 21.852 15.3127H9.32013C9.29607 15.3115 9.27196 15.3115 9.2479 15.3127ZM10.0063 16.7212H21.1655V24.0525H10.0063V16.7212ZM10.2591 32.6473C10.0908 32.6824 9.9416 32.7787 9.84031 32.9175C9.73901 33.0564 9.69289 33.2279 9.71089 33.3988C9.72888 33.5697 9.8097 33.7279 9.93768 33.8426C10.0657 33.9573 10.2317 34.0204 10.4036 34.0197H27.7742C27.8727 34.0341 27.9731 34.0271 28.0687 33.9992C28.1643 33.9713 28.2527 33.9232 28.328 33.8581C28.4033 33.793 28.4637 33.7125 28.5051 33.622C28.5465 33.5315 28.568 33.433 28.568 33.3335C28.568 33.234 28.5465 33.1356 28.5051 33.0451C28.4637 32.9546 28.4033 32.874 28.328 32.8089C28.2527 32.7438 28.1643 32.6957 28.0687 32.6678C27.9731 32.6399 27.8727 32.6329 27.7742 32.6473H10.4036C10.3555 32.6423 10.3071 32.6423 10.2591 32.6473ZM10.2591 38.3896C10.0908 38.4246 9.9416 38.5209 9.84031 38.6598C9.73901 38.7986 9.69289 38.9701 9.71089 39.141C9.72888 39.312 9.8097 39.4701 9.93768 39.5849C10.0657 39.6996 10.2317 39.7626 10.4036 39.7619H47.9265C48.025 39.7763 48.1255 39.7693 48.221 39.7414C48.3166 39.7136 48.405 39.6655 48.4803 39.6004C48.5556 39.5353 48.616 39.4547 48.6574 39.3642C48.6988 39.2736 48.7203 39.1753 48.7203 39.0757C48.7203 38.9762 48.6988 38.8778 48.6574 38.7873C48.616 38.6968 48.5556 38.6162 48.4803 38.5511C48.405 38.486 48.3166 38.4379 48.221 38.41C48.1255 38.3821 48.025 38.3752 47.9265 38.3896H10.4036C10.3555 38.3845 10.3071 38.3845 10.2591 38.3896ZM10.1869 46.0458C10.0965 46.0597 10.0097 46.0914 9.93162 46.1389C9.85349 46.1864 9.78551 46.2488 9.73159 46.3227C9.67766 46.3966 9.63885 46.4803 9.61738 46.5692C9.59591 46.6581 9.59219 46.7504 9.60645 46.8407C9.62072 46.931 9.65267 47.0177 9.70049 47.0956C9.74831 47.1736 9.81104 47.2413 9.8851 47.295C9.95915 47.3486 10.0431 47.3871 10.132 47.4082C10.221 47.4294 10.3133 47.4327 10.4036 47.4181H47.9265C48.025 47.4325 48.1255 47.4255 48.221 47.3977C48.3166 47.3698 48.405 47.3217 48.4803 47.2566C48.5556 47.1915 48.616 47.1109 48.6574 47.0204C48.6988 46.9298 48.7203 46.8315 48.7203 46.7319C48.7203 46.6324 48.6988 46.534 48.6574 46.4435C48.616 46.353 48.5556 46.2724 48.4803 46.2073C48.405 46.1422 48.3166 46.0941 48.221 46.0662C48.1255 46.0384 48.025 46.0314 47.9265 46.0458H10.4036C10.3318 46.0344 10.2587 46.0344 10.1869 46.0458ZM17.7347 52.9797C17.4326 52.9913 17.1016 53.0121 16.7957 53.0514C11.8474 53.6932 8.35388 58.2461 8.99504 63.1995C9.63617 68.153 14.1949 71.6421 19.1431 71.0002C24.0811 70.3597 27.5302 65.8657 26.9077 60.9243C26.908 60.9123 26.908 60.9004 26.9077 60.8884C26.9105 60.8523 26.9105 60.816 26.9077 60.7798C26.908 60.7679 26.908 60.7559 26.9077 60.744C26.2413 56.1612 22.2653 52.8509 17.7347 52.9797ZM17.7707 54.3882C21.6172 54.2773 24.969 57.0668 25.5354 60.961C25.535 60.973 25.535 60.9849 25.5354 60.9969C25.5341 61.0207 25.5341 61.0447 25.5354 61.0685C26.0802 65.2783 23.168 69.082 18.9626 69.6275C14.7571 70.1729 10.9123 67.2645 10.3674 63.0547C9.8225 58.8449 12.7709 54.969 16.9763 54.4235C17.2362 54.39 17.5143 54.3952 17.7707 54.3882ZM22.8267 58.3608C22.7774 58.3675 22.729 58.3795 22.6823 58.3966C22.6042 58.4198 22.5309 58.4566 22.4656 58.5053L15.1343 63.9584L13.6537 61.5388C13.5572 61.3825 13.4027 61.2705 13.224 61.2275C13.0453 61.1845 12.8569 61.2138 12.6997 61.309C12.5425 61.4043 12.4293 61.5578 12.3848 61.7361C12.3403 61.9145 12.368 62.1032 12.462 62.2611L14.3399 65.3308C14.3913 65.4127 14.4593 65.483 14.5395 65.5372C14.6197 65.5913 14.7103 65.6281 14.8055 65.6451C14.9008 65.6621 14.9985 65.659 15.0925 65.636C15.1864 65.613 15.2746 65.5705 15.3511 65.5114L23.2602 59.6247C23.3851 59.539 23.4785 59.4146 23.5261 59.2708C23.5737 59.1269 23.5728 58.9714 23.5237 58.8281C23.4745 58.6848 23.3798 58.5615 23.254 58.4771C23.1281 58.3927 22.978 58.3519 22.8267 58.3608ZM58.3989 70.3866C64.922 70.3866 70.2086 75.6366 70.2086 82.1603C70.2086 88.6834 64.9224 93.9701 58.3989 93.9701C51.8759 93.9701 46.5893 88.6836 46.5893 82.1603C46.5893 75.6372 51.8755 70.3866 58.3989 70.3866ZM57.6044 75.7314V76.8148C57.0409 76.8633 56.5017 76.9341 56.0154 77.1037C55.3321 77.3423 54.8183 77.6909 54.4624 78.1512C54.1067 78.6115 53.9207 79.1023 53.9207 79.6317C53.9207 80.1135 54.0633 80.5431 54.3541 80.9318C54.6449 81.3206 55.0974 81.6447 55.6903 81.9071C56.0696 82.0772 56.7548 82.2605 57.6043 82.4486V86.2408C57.3162 86.1888 57.0321 86.1191 56.7736 86.0241C56.2089 85.8165 55.7779 85.5659 55.5096 85.2296C55.2413 84.8933 55.0774 84.4541 55.004 83.9295L53.451 84.0381C53.4735 84.7392 53.7052 85.3603 54.1372 85.916C54.5692 86.4717 55.1834 86.9032 55.9429 87.1799C56.42 87.3537 56.9833 87.4764 57.6041 87.541V88.6244H59.1932V87.541C59.9022 87.5017 60.5564 87.4071 61.1433 87.1799C61.852 86.9056 62.3902 86.5179 62.7684 86.0242C63.1468 85.5305 63.3462 84.9933 63.3462 84.4352C63.3462 83.8724 63.1851 83.3863 62.8406 82.9547C62.4962 82.5229 61.9383 82.1887 61.2156 81.9072C60.8241 81.757 60.1051 81.5558 59.1932 81.3656V78.0431C59.7484 78.1159 60.1939 78.2439 60.5293 78.4765C61.0178 78.8151 61.3114 79.3303 61.3961 79.9933L62.9851 79.8847C62.9569 79.2693 62.7495 78.7099 62.3712 78.2234C61.9928 77.7369 61.4491 77.3904 60.7461 77.14C60.2871 76.9765 59.7448 76.8716 59.1931 76.8148V75.7314H57.6044ZM20.8766 77.1037C23.5432 77.0124 26.7709 77.5317 30.0857 78.729C33.8741 80.0973 37.0454 82.0953 39.0421 84.1461C41.0387 86.1969 41.7936 88.2249 41.245 89.7437C40.6964 91.2625 38.8186 92.2954 35.9723 92.5969C33.126 92.8984 29.432 92.4121 25.6436 91.0438C21.8553 89.6755 18.7201 87.7136 16.7234 85.6629C14.7267 83.6122 13.9357 81.5837 14.4843 80.0651C15.0328 78.5463 16.9107 77.4775 19.757 77.176C20.1127 77.1378 20.4956 77.1164 20.8766 77.1037ZM57.6044 78.0067V81.0403C56.823 80.8553 56.2476 80.641 56.0154 80.4625C55.6935 80.2192 55.5098 79.9364 55.5098 79.5595C55.5098 79.1254 55.7414 78.7477 56.196 78.4401C56.5229 78.2188 56.9985 78.0688 57.6044 78.0067ZM13.1475 79.7402C13.1026 79.7945 13.0658 79.8557 13.0393 79.9206L11.1613 85.1211C10.3507 87.3655 11.4999 89.9131 13.6893 92.1635C13.8699 92.3491 14.0716 92.5224 14.2671 92.7051C10.7765 92.5474 7.63102 91.7921 5.34687 90.6827C2.7723 89.4321 1.41048 87.7833 1.41048 86.1685C1.41048 84.5539 2.77242 82.9409 5.34687 81.6904C7.38244 80.7017 10.1112 79.995 13.1475 79.7402ZM27.376 80.8236C27.1383 80.8121 26.9149 80.8468 26.7259 80.8953C26.3479 80.9947 26.1294 81.1747 26.0036 81.4369C25.8891 81.6756 25.8764 81.9335 26.0036 82.2314C26.1308 82.5293 26.3766 82.8619 26.762 83.2066C27.0113 83.4312 27.4892 83.7731 28.0982 84.1815L27.1592 86.0595C26.9586 85.932 26.7867 85.7641 26.6175 85.6261C26.2404 85.3188 25.9817 85.0593 25.8591 84.7956C25.7365 84.5319 25.7176 84.2515 25.7869 83.9649L24.5952 83.4593C24.4456 83.8149 24.4371 84.2194 24.6312 84.6512C24.8254 85.0829 25.2069 85.5029 25.7147 85.915C26.0312 86.1721 26.4213 86.4186 26.8703 86.6736L26.6175 87.2151L27.8454 87.793L28.0982 87.2874C28.6336 87.5191 29.1617 87.6945 29.6512 87.793C30.2515 87.9139 30.7288 87.9366 31.1318 87.8288C31.5348 87.7213 31.8298 87.5275 31.9624 87.251C32.0962 86.9721 32.0838 86.6506 31.9264 86.312C31.7688 85.9734 31.4302 85.5938 30.9513 85.1926C30.7092 84.9912 30.1177 84.5997 29.5428 84.2174L30.3373 82.5561C30.7283 82.789 31.0457 83.01 31.2401 83.2424C31.5285 83.5872 31.6226 83.9667 31.529 84.3259L32.7569 84.8315C32.8818 84.5164 32.8548 84.1621 32.6847 83.784C32.5146 83.406 32.181 83.0433 31.7096 82.6646C31.402 82.4175 31.0651 82.1701 30.6623 81.9423L30.9151 81.4005L29.6872 80.8226L29.4344 81.3645C28.9983 81.1853 28.577 81.0229 28.1704 80.9311C27.884 80.8664 27.6136 80.8317 27.376 80.8236ZM27.9899 81.6541C28.2832 81.6657 28.6864 81.7981 29.1456 81.9793L28.4233 83.4598C27.8829 83.0886 27.4719 82.7646 27.3398 82.5931C27.1546 82.3561 27.1058 82.1659 27.1954 81.9793C27.2985 81.7642 27.5735 81.642 27.9899 81.6541ZM59.1926 82.8098C59.5721 82.8976 60.1423 83.0429 60.3121 83.0987C60.8316 83.2657 61.2058 83.4671 61.4317 83.7128C61.6575 83.9585 61.7567 84.2504 61.7567 84.5795C61.7567 84.9039 61.6299 85.208 61.3956 85.4822C61.1612 85.7566 60.8282 85.9389 60.3482 86.0963C60.0081 86.2084 59.6064 86.2805 59.1926 86.313V82.8098ZM13.3639 83.1349C13.8299 84.3138 14.6295 85.5267 15.7113 86.6379C17.9013 88.8872 21.2137 90.9137 25.1732 92.3439C29.1327 93.774 32.9939 94.3359 36.1159 94.0052C37.6444 93.8433 39.0219 93.4506 40.1246 92.8495L39.2579 95.2693C38.7097 96.787 36.8363 97.8572 33.9852 98.1585C31.1341 98.4596 27.4086 97.9737 23.6204 96.6054C19.8321 95.2371 16.6963 93.24 14.7001 91.1883C12.7039 89.1365 11.9124 87.1095 12.461 85.5907L13.3639 83.1349ZM29.2184 84.9407C29.4657 85.1094 29.867 85.3611 29.9768 85.4463C30.3294 85.7171 30.5507 85.965 30.6629 86.1685C30.7751 86.372 30.8134 86.547 30.7352 86.7101C30.6581 86.8709 30.5078 86.9843 30.2657 87.0353C30.0235 87.0861 29.6905 87.0595 29.2906 86.9636C29.0134 86.8966 28.7003 86.8043 28.3877 86.6747L29.2184 84.9407ZM1.37402 89.4548C2.2126 90.4044 3.37492 91.2336 4.76875 91.9106C7.59271 93.2822 11.3932 94.1137 15.603 94.1137C15.7132 94.1137 15.8185 94.1148 15.928 94.1137C17.794 95.506 20.0907 96.7432 22.6815 97.7251C20.5948 98.2912 18.1811 98.6278 15.6031 98.6278C11.5754 98.6278 7.92109 97.821 5.34664 96.5694C2.77218 95.3177 1.37407 93.6698 1.37407 92.055L1.37402 89.4548Z" fill="#0077FF"/>
</svg>
