<svg width="101" height="92" viewBox="0 0 101 92" fill="none" xmlns="http://www.w3.org/2000/svg">
<path d="M41.4545 10.5455H99.2609M41.4545 10.5455C41.4545 12.9041 40.5176 15.1662 38.8498 16.834C37.182 18.5018 34.9199 19.4388 32.5613 19.4388C30.2026 19.4388 27.9406 18.5018 26.2728 16.834C24.605 15.1662 23.668 12.9041 23.668 10.5455M41.4545 10.5455C41.4545 8.18686 40.5176 5.92481 38.8498 4.257C37.182 2.58919 34.9199 1.65222 32.5613 1.65222C30.2026 1.65222 27.9406 2.58919 26.2728 4.257C24.605 5.92481 23.668 8.18686 23.668 10.5455M23.668 10.5455H1.43478M41.4545 81.6917H99.2609M41.4545 81.6917C41.4545 84.0504 40.5176 86.3124 38.8498 87.9802C37.182 89.648 34.9199 90.585 32.5613 90.585C30.2026 90.585 27.9406 89.648 26.2728 87.9802C24.605 86.3124 23.668 84.0504 23.668 81.6917M41.4545 81.6917C41.4545 79.3331 40.5176 77.0711 38.8498 75.4032C37.182 73.7354 34.9199 72.7985 32.5613 72.7985C30.2026 72.7985 27.9406 73.7354 26.2728 75.4032C24.605 77.0711 23.668 79.3331 23.668 81.6917M23.668 81.6917H1.43478M77.0277 46.1186H99.2609M77.0277 46.1186C77.0277 48.4773 76.0907 50.7393 74.4229 52.4071C72.7551 54.0749 70.493 55.0119 68.1344 55.0119C65.7757 55.0119 63.5137 54.0749 61.8459 52.4071C60.1781 50.7393 59.2411 48.4773 59.2411 46.1186M77.0277 46.1186C77.0277 43.76 76.0907 41.4979 74.4229 39.8301C72.7551 38.1623 70.493 37.2253 68.1344 37.2253C65.7757 37.2253 63.5137 38.1623 61.8459 39.8301C60.1781 41.4979 59.2411 43.76 59.2411 46.1186M59.2411 46.1186H1.43478" stroke="#0077FF" stroke-width="2" stroke-linecap="round" stroke-linejoin="round"/>
</svg>
