<svg width="82" height="82" viewBox="0 0 82 82" fill="none" xmlns="http://www.w3.org/2000/svg">
<path d="M17.6667 1V11M64.3333 1V11M1 71V21C1 18.3478 2.05357 15.8043 3.92893 13.9289C5.8043 12.0536 8.34784 11 11 11H71C73.6522 11 76.1957 12.0536 78.0711 13.9289C79.9464 15.8043 81 18.3478 81 21V71M1 71C1 73.6522 2.05357 76.1957 3.92893 78.0711C5.8043 79.9464 8.34784 81 11 81H71C73.6522 81 76.1957 79.9464 78.0711 78.0711C79.9464 76.1957 81 73.6522 81 71M1 71V37.6667C1 35.0145 2.05357 32.471 3.92893 30.5956C5.8043 28.7202 8.34784 27.6667 11 27.6667H71C73.6522 27.6667 76.1957 28.7202 78.0711 30.5956C79.9464 32.471 81 35.0145 81 37.6667V71M41 44.3333H41.0356V44.3689H41V44.3333ZM41 54.3333H41.0356V54.3689H41V54.3333ZM41 64.3333H41.0356V64.3689H41V64.3333ZM31 54.3333H31.0356V54.3689H31V54.3333ZM31 64.3333H31.0356V64.3689H31V64.3333ZM21 54.3333H21.0356V54.3689H21V54.3333ZM21 64.3333H21.0356V64.3689H21V64.3333ZM51 44.3333H51.0356V44.3689H51V44.3333ZM51 54.3333H51.0356V54.3689H51V54.3333ZM51 64.3333H51.0356V64.3689H51V64.3333ZM61 44.3333H61.0356V44.3689H61V44.3333ZM61 54.3333H61.0356V54.3689H61V54.3333Z" stroke="#0077FF" stroke-width="2" stroke-linecap="round" stroke-linejoin="round"/>
</svg>
