<svg width="80" height="80" viewBox="0 0 80 80" fill="none" xmlns="http://www.w3.org/2000/svg">
<path d="M52.5 23.375L56.625 27.5L63.5 17.875M74.5 22C74.5 24.3247 73.345 26.3817 71.5795 27.6247C71.7697 28.7114 71.6953 29.828 71.3624 30.8798C71.0295 31.9317 70.4481 32.8879 69.6673 33.6673C68.8879 34.4481 67.9317 35.0295 66.8798 35.3624C65.828 35.6952 64.7114 35.7697 63.6247 35.5795C62.9907 36.4824 62.1486 37.2192 61.1695 37.7276C60.1904 38.2359 59.1032 38.5009 58 38.5C55.6753 38.5 53.6183 37.345 52.3753 35.5795C51.2886 35.7696 50.1721 35.695 49.1202 35.3622C48.0684 35.0293 47.1122 34.448 46.3327 33.6673C45.5519 32.8879 44.9705 31.9317 44.6376 30.8798C44.3048 29.828 44.2303 28.7114 44.4205 27.6247C43.5176 26.9907 42.7808 26.1486 42.2724 25.1695C41.7641 24.1904 41.4991 23.1032 41.5 22C41.5 19.6753 42.655 17.6183 44.4205 16.3753C44.2303 15.2886 44.3048 14.172 44.6376 13.1202C44.9705 12.0683 45.5519 11.1121 46.3327 10.3327C47.1122 9.55202 48.0684 8.97068 49.1202 8.63783C50.1721 8.30499 51.2886 8.23044 52.3753 8.4205C53.0094 7.51774 53.8516 6.781 54.8306 6.27264C55.8097 5.76428 56.8968 5.49926 58 5.5C60.3247 5.5 62.3817 6.655 63.6247 8.4205C64.7114 8.23044 65.8279 8.30499 66.8798 8.63783C67.9316 8.97068 68.8878 9.55202 69.6673 10.3327C70.448 11.1122 71.0293 12.0684 71.3622 13.1202C71.695 14.1721 71.7696 15.2886 71.5795 16.3753C72.4824 17.0093 73.2192 17.8514 73.7276 18.8305C74.2359 19.8096 74.5009 20.8968 74.5 22Z" stroke="#0077FF" stroke-width="1.5" stroke-linecap="round" stroke-linejoin="round"/>
<path d="M59.6923 78C27.8308 78 2 52.1692 2 20.3077V11.6538C2 9.3587 2.91174 7.15756 4.53465 5.53465C6.15756 3.91174 8.3587 3 10.6538 3H15.9308C17.9154 3 19.6462 4.35 20.1269 6.27692L24.3808 23.2885C24.8038 24.9808 24.1731 26.7577 22.7769 27.8L17.8038 31.5308C17.092 32.0461 16.5654 32.7772 16.3021 33.6156C16.0388 34.4539 16.0529 35.3549 16.3423 36.1846C18.6572 42.4812 22.3131 48.1994 27.0569 52.9431C31.8006 57.6869 37.5188 61.3428 43.8154 63.6577C45.5115 64.2808 47.3846 63.6423 48.4692 62.1962L52.2 57.2231C52.7107 56.5414 53.4112 56.0255 54.2137 55.7402C55.0163 55.4549 55.8852 55.4128 56.7115 55.6192L73.7231 59.8731C75.6462 60.3538 77 62.0846 77 64.0692V69.3462C77 71.6413 76.0883 73.8424 74.4653 75.4653C72.8424 77.0883 70.6413 78 68.3462 78H59.6923Z" stroke="#0077FF" stroke-width="2" stroke-linecap="round" stroke-linejoin="round"/>
</svg>
